HIERARCHY
ROOT Hips
{
	OFFSET 0.000000 0.000000 0.000000
	CHANNELS 6 Xposition Yposition Zposition Xrotation Yrotation Zrotation
	JOINT LeftUpLeg_virtual
	{
		OFFSET 0.000000 0.000000 0.000000
		CHANNELS 3 Xrotation Yrotation Zrotation
		JOINT LeftUpLeg
		{
			OFFSET 15.427100 -6.655098 0.678600
			CHANNELS 3 Xrotation Yrotation Zrotation
			JOINT LeftLeg
			{
				OFFSET 4.081073 -39.591068 13.024000
				CHANNELS 3 Xrotation Yrotation Zrotation
				JOINT LeftFoot
				{
					OFFSET -4.081074 -37.707932 -15.979700
					CHANNELS 3 Xrotation Yrotation Zrotation
					JOINT LeftToeBase
					{
						OFFSET 5.346399 -15.068900 20.645000
						CHANNELS 3 Xrotation Yrotation Zrotation
						JOINT LeftToe_End
						{
							OFFSET 2.754700 0.931300 11.300900
							CHANNELS 3 Xrotation Yrotation Zrotation
							End Site
							{
								OFFSET 0 0 0
							}
						}
					}
				}
			}
		}
	}
	JOINT RightUpLeg_virtual
	{
		OFFSET 0.000000 0.000000 0.000000
		CHANNELS 3 Xrotation Yrotation Zrotation
		JOINT RightUpLeg
		{
			OFFSET -15.569500 -6.655098 0.678600
			CHANNELS 3 Xrotation Yrotation Zrotation
			JOINT RightLeg
			{
				OFFSET -4.081825 -39.591045 13.023800
				CHANNELS 3 Xrotation Yrotation Zrotation
				JOINT RightFoot
				{
					OFFSET 4.081824 -37.707954 -15.979600
					CHANNELS 3 Xrotation Yrotation Zrotation
					JOINT RightToeBase
					{
						OFFSET -5.346400 -15.068900 20.645000
						CHANNELS 3 Xrotation Yrotation Zrotation
						JOINT RightToe_End
						{
							OFFSET -2.754700 0.931300 11.300900
							CHANNELS 3 Xrotation Yrotation Zrotation
							End Site
							{
								OFFSET 0 0 0
							}
						}
					}
				}
			}
		}
	}
	JOINT Spine_virtual
	{
		OFFSET 0.000000 0.000000 0.000000
		CHANNELS 3 Xrotation Yrotation Zrotation
		JOINT Spine
		{
			OFFSET -0.279200 12.230698 -2.892100
			CHANNELS 3 Xrotation Yrotation Zrotation
			JOINT Spine1
			{
				OFFSET -0.232667 10.192268 -1.242267
				CHANNELS 3 Xrotation Yrotation Zrotation
				JOINT Spine1_split
				{
					OFFSET -0.232667 10.192268 -1.242267
					CHANNELS 3 Xrotation Yrotation Zrotation
					JOINT Spine2
					{
						OFFSET -0.232667 10.192268 -1.242267
						CHANNELS 3 Xrotation Yrotation Zrotation
						JOINT Neck_virtual
						{
							OFFSET 0.000000 0.000000 0.000000
							CHANNELS 3 Xrotation Yrotation Zrotation
							JOINT Neck
							{
								OFFSET -0.418800 17.814194 8.416900
								CHANNELS 3 Xrotation Yrotation Zrotation
								JOINT Head
								{
									OFFSET 0.000000 7.031097 3.806800
									CHANNELS 3 Xrotation Yrotation Zrotation
									JOINT HeadTop_End
									{
										OFFSET 0.000000 24.646606 12.978600
										CHANNELS 3 Xrotation Yrotation Zrotation
										End Site
										{
											OFFSET 0 0 0
										}
									}
								}
							}
						}
						JOINT LeftShoulder_virtual
						{
							OFFSET 0.000000 0.000000 0.000000
							CHANNELS 3 Xrotation Yrotation Zrotation
							JOINT LeftShoulder
							{
								OFFSET 8.476499 7.247704 -3.868750
								CHANNELS 3 Xrotation Yrotation Zrotation
								JOINT LeftShoulder_split
								{
									OFFSET 8.476499 7.247704 -3.868750
									CHANNELS 3 Xrotation Yrotation Zrotation
									JOINT LeftArm
									{
										OFFSET 9.308998 -2.777710 0.208600
										CHANNELS 3 Xrotation Yrotation Zrotation
										JOINT LeftForeArm
										{
											OFFSET 29.972298 0.000000 0.000000
											CHANNELS 3 Xrotation Yrotation Zrotation
											JOINT LeftHand
											{
												OFFSET 26.026505 0.000000 0.000000
												CHANNELS 3 Xrotation Yrotation Zrotation
												End Site
												{
													OFFSET 0 0 0
												}
											}
										}
									}
								}
							}
						}
						JOINT RightShoulder_virtual
						{
							OFFSET 0.000000 0.000000 0.000000
							CHANNELS 3 Xrotation Yrotation Zrotation
							JOINT RightShoulder
							{
								OFFSET -7.570500 7.247704 -3.868750
								CHANNELS 3 Xrotation Yrotation Zrotation
								JOINT RightShoulder_split
								{
									OFFSET -7.570500 7.247704 -3.868750
									CHANNELS 3 Xrotation Yrotation Zrotation
									JOINT RightArm
									{
										OFFSET -9.308998 -2.777710 0.208500
										CHANNELS 3 Xrotation Yrotation Zrotation
										JOINT RightForeArm
										{
											OFFSET -29.972300 0.000000 0.000000
											CHANNELS 3 Xrotation Yrotation Zrotation
											JOINT RightHand
											{
												OFFSET -26.026505 0.000000 0.000000
												CHANNELS 3 Xrotation Yrotation Zrotation
												End Site
												{
													OFFSET 0 0 0
												}
											}
										}
									}
								}
							}
						}
					}
				}
			}
		}
	}
}
MOTION
Frames: 9
Frame Time: 0.03333333
15.216428 88.568756 -2.630398 0.000000 0.000000 0.000000 4.429248 -44.731725 3.566033 -18.402556 14.486230 8.122890 35.556964 20.864112 2.444240 -12.097033 22.871095 -14.970571 -3.075500 -2.348399 -2.459413 0.000000 0.000000 0.000000 4.429248 -44.731725 3.566033 -21.591073 -38.957623 -22.549996 34.694144 -9.802443 -1.387533 -16.543915 -8.261548 13.528894 -3.462162 2.343099 3.682187 0.000000 0.000000 0.000000 4.429248 -44.731725 3.566033 10.049064 -5.685559 1.885072 3.163503 -1.512340 -0.697451 0.000000 0.000000 0.000000 0.000000 0.000000 0.000000 -8.797956 -4.507173 -1.737362 -8.619755 -5.680346 -4.223876 10.236761 -21.724161 6.571340 0.000000 0.000000 0.000000 -8.797956 -4.507173 -1.737362 -1.030448 -3.562890 -2.856980 0.000000 0.000000 0.000000 12.943500 6.801911 -62.448891 -0.021957 -41.919828 -0.010955 0.000000 0.000000 0.000000 -8.797956 -4.507173 -1.737362 -0.692926 -0.246645 0.850135 0.000000 0.000000 0.000000 3.276076 11.725662 70.773396 0.642555 47.750805 -0.275632 0.000000 0.000000 0.000000 
14.911965 88.770157 -2.987072 0.000000 0.000000 0.000000 3.944246 -48.276638 3.696609 -16.513157 15.130951 8.420716 35.115959 22.282881 2.269841 -11.725651 24.351354 -16.395444 -2.615618 -1.916440 -2.884485 0.000000 0.000000 0.000000 3.944246 -48.276638 3.696609 -20.632851 -38.924719 -22.704208 32.855932 -9.937026 -1.325754 -14.928760 -9.060681 14.847902 -5.415912 2.348667 2.459463 0.000000 0.000000 0.000000 3.944246 -48.276638 3.696609 9.906397 -5.778505 1.914783 2.967045 -1.211541 -0.652809 0.000000 0.000000 0.000000 0.000000 0.000000 0.000000 -9.020272 -4.366687 -1.601919 -8.544200 -4.716537 -4.541435 10.608241 -19.712419 5.755015 0.000000 0.000000 0.000000 -9.020272 -4.366687 -1.601919 -0.878239 -4.226526 -2.233009 0.000000 0.000000 0.000000 13.531517 6.780623 -62.153014 -0.020250 -42.480628 -0.009966 0.000000 0.000000 0.000000 -9.020272 -4.366687 -1.601919 -0.846761 0.820777 0.916898 0.000000 0.000000 0.000000 2.989851 9.871409 70.799514 0.512280 47.191082 -0.227982 0.000000 0.000000 0.000000 
14.540522 88.644753 -3.521290 0.000000 0.000000 0.000000 3.613477 -51.224120 3.641395 -16.491060 15.483223 9.857963 36.992014 23.983052 2.090882 -10.342681 23.969111 -18.135356 -1.518846 -0.885963 -3.896992 0.000000 0.000000 0.000000 3.613477 -51.224120 3.641395 -21.299953 -38.246723 -22.340251 33.481119 -8.936596 -1.342398 -15.582510 -7.792792 13.528119 -5.415905 2.348504 2.459469 0.000000 0.000000 0.000000 3.613477 -51.224120 3.641395 9.780062 -5.615350 1.854977 2.839602 -0.944643 -0.432627 0.000000 0.000000 0.000000 0.000000 0.000000 0.000000 -9.159908 -4.281930 -1.286580 -8.508168 -4.235825 -4.578833 10.792601 -17.958405 4.764732 0.000000 0.000000 0.000000 -9.159908 -4.281930 -1.286580 -0.726153 -4.749524 -1.633528 0.000000 0.000000 0.000000 13.608973 6.402175 -62.096658 -0.018533 -42.554070 -0.009084 0.000000 0.000000 0.000000 -9.159908 -4.281930 -1.286580 -0.995144 1.645281 1.031886 0.000000 0.000000 0.000000 2.815497 7.867687 70.540083 0.304942 46.539475 -0.149992 0.000000 0.000000 0.000000 
14.172006 88.486397 -4.183662 0.000000 0.000000 0.000000 3.212155 -53.582093 3.037090 -17.588791 15.530402 12.385060 39.722601 24.145475 1.702573 -7.719458 22.441275 -19.812547 -0.285125 0.351449 -4.930445 0.000000 0.000000 0.000000 3.212155 -53.582093 3.037090 -20.856054 -37.212189 -20.747746 33.908682 -8.597992 -1.385123 -16.134830 -7.214842 12.498339 -5.415933 2.348673 2.459442 0.000000 0.000000 0.000000 3.212155 -53.582093 3.037090 9.687987 -5.120409 1.899635 2.769436 -0.747859 -0.110742 0.000000 0.000000 0.000000 0.000000 0.000000 0.000000 -9.231854 -4.270542 -0.872010 -8.406887 -4.199627 -4.326486 10.892025 -16.490628 3.714329 0.000000 0.000000 0.000000 -9.231854 -4.270542 -0.872010 -0.597249 -5.228942 -1.041851 0.000000 0.000000 0.000000 13.072931 5.641180 -62.093380 -0.016751 -41.984001 -0.008184 0.000000 0.000000 0.000000 -9.231854 -4.270542 -0.872010 -1.129706 2.212056 1.229378 0.000000 0.000000 0.000000 2.675086 5.839538 70.097227 0.079154 45.487479 -0.058581 0.000000 0.000000 0.000000 
13.769722 88.324516 -4.804138 0.000000 0.000000 0.000000 2.525557 -55.669225 2.007825 -19.021565 15.539404 14.944672 42.042830 22.014475 1.118838 -5.841369 20.518530 -19.430737 -1.443738 1.344146 -4.646847 0.000000 0.000000 0.000000 2.525557 -55.669225 2.007825 -19.671093 -35.690269 -18.603093 34.193679 -8.683866 -1.437856 -16.595596 -7.142900 11.760579 -5.415902 2.348570 2.459491 0.000000 0.000000 0.000000 2.525557 -55.669225 2.007825 9.622187 -4.184963 1.952424 2.758855 -0.674157 0.191249 0.000000 0.000000 0.000000 0.000000 0.000000 0.000000 -9.240046 -4.354631 -0.487648 -8.856092 -4.491420 -3.793486 10.990139 -15.209523 2.595061 0.000000 0.000000 0.000000 -9.240046 -4.354631 -0.487648 -0.506792 -5.780035 -0.538030 0.000000 0.000000 0.000000 12.542970 4.469193 -61.983332 -0.015012 -41.273819 -0.007428 0.000000 0.000000 0.000000 -9.240046 -4.354631 -0.487648 -1.244803 2.569902 1.471830 0.000000 0.000000 0.000000 2.575585 3.886156 69.584683 -0.068334 43.979496 0.010161 0.000000 0.000000 0.000000 
13.244794 88.277420 -5.268826 0.000000 0.000000 0.000000 1.612010 -57.702312 0.839984 -20.959907 15.559856 17.122051 43.714539 18.725703 0.513979 -4.903462 17.922350 -17.561431 -2.557013 1.369901 -5.507854 0.000000 0.000000 0.000000 1.612010 -57.702312 0.839984 -18.080563 -33.737357 -16.407390 34.186026 -8.969288 -1.472939 -16.914079 -7.354357 11.258903 -5.415899 2.348607 2.459459 0.000000 0.000000 0.000000 1.612010 -57.702312 0.839984 9.574896 -2.920359 1.975357 2.797754 -0.696162 0.446941 0.000000 0.000000 0.000000 0.000000 0.000000 0.000000 -9.198965 -4.505708 -0.161227 -8.818834 -4.728195 -3.520149 11.311652 -14.058655 1.836462 0.000000 0.000000 0.000000 -9.198965 -4.505708 -0.161227 -0.443686 -6.380303 -0.208222 0.000000 0.000000 0.000000 12.634066 2.854934 -61.717125 -0.013657 -40.959388 -0.006849 0.000000 0.000000 0.000000 -9.198965 -4.505708 -0.161227 -1.344717 2.819717 1.678170 0.000000 0.000000 0.000000 2.458483 2.033189 69.023535 -0.103931 41.970225 0.030967 0.000000 0.000000 0.000000 
12.577637 88.431839 -5.588078 0.000000 0.000000 0.000000 0.721867 -59.643384 -0.201472 -23.139038 15.595205 18.772346 44.536310 15.125466 -0.043018 -3.531943 14.859140 -15.229770 -4.187873 0.726072 -4.706188 0.000000 0.000000 0.000000 0.721867 -59.643384 -0.201472 -16.248638 -31.355527 -14.253399 33.740800 -9.450813 -1.484396 -17.024489 -7.851607 10.961080 -5.415937 2.348557 2.459449 0.000000 0.000000 0.000000 0.721867 -59.643384 -0.201472 9.532688 -1.642921 1.996007 2.839425 -0.657252 0.669442 0.000000 0.000000 0.000000 0.000000 0.000000 0.000000 -9.150042 -4.534864 0.133084 -8.256170 -4.744586 -3.891759 11.601909 -13.190629 1.805296 0.000000 0.000000 0.000000 -9.150042 -4.534864 0.133084 -0.400513 -6.861641 -0.191045 0.000000 0.000000 0.000000 12.838036 1.038829 -61.359346 -0.012538 -40.639427 -0.006496 0.000000 0.000000 0.000000 -9.150042 -4.534864 0.133084 -1.424594 2.973474 1.777672 0.000000 0.000000 0.000000 2.471830 0.375368 68.518163 -0.073409 39.589556 0.015627 0.000000 0.000000 0.000000 
11.782671 88.620407 -5.789452 0.000000 0.000000 0.000000 0.157634 -61.549895 -0.861156 -25.623417 15.592528 19.940493 45.104729 11.495522 -0.500667 -2.159958 11.736317 -12.762210 -5.400288 -0.242075 -4.293867 0.000000 0.000000 0.000000 0.157634 -61.549895 -0.861156 -14.642558 -28.638742 -12.345247 33.247305 -10.028699 -1.474842 -17.119946 -8.531739 10.815354 -5.415911 2.348684 2.459458 0.000000 0.000000 0.000000 0.157634 -61.549895 -0.861156 9.478382 -0.527561 2.031091 2.836417 -0.509672 0.911493 0.000000 0.000000 0.000000 0.000000 0.000000 0.000000 -9.137681 -4.452353 0.444030 -7.782052 -4.537659 -4.737864 11.605413 -12.488804 2.212513 0.000000 0.000000 0.000000 -9.137681 -4.452353 0.444030 -0.434806 -6.920346 -0.465225 0.000000 0.000000 0.000000 12.921195 -0.924291 -61.024387 -0.011833 -40.118209 -0.006150 0.000000 0.000000 0.000000 -9.137681 -4.452353 0.444030 -1.480776 3.004983 1.796332 0.000000 0.000000 0.000000 2.613735 -1.164684 67.863011 -0.082602 37.291327 0.021982 0.000000 0.000000 0.000000 
10.883925 88.847717 -5.929527 0.000000 0.000000 0.000000 -0.038864 -63.583570 -1.099430 -28.101292 15.553092 20.689546 45.394110 8.036646 -0.830572 -1.129229 8.882028 -10.450605 -4.747848 -1.295869 -3.710033 0.000000 0.000000 0.000000 -0.038864 -63.583570 -1.099430 -13.352251 -25.733564 -10.689403 32.704920 -10.590509 -1.451304 -17.198988 -9.211614 10.694165 -5.415919 2.348598 2.459444 0.000000 0.000000 0.000000 -0.038864 -63.583570 -1.099430 9.412967 0.352635 2.080339 2.781466 -0.283383 1.149993 0.000000 0.000000 0.000000 0.000000 0.000000 0.000000 -9.170526 -4.283662 0.736898 -7.253517 -4.109657 -5.775952 11.396206 -11.772043 2.781462 0.000000 0.000000 0.000000 -9.170526 -4.283662 0.736898 -0.574637 -6.718293 -0.881624 0.000000 0.000000 0.000000 13.236239 -2.920191 -60.724343 -0.010996 -39.552464 -0.005514 0.000000 0.000000 0.000000 -9.170526 -4.283662 0.736898 -1.507382 2.864207 1.823964 0.000000 0.000000 0.000000 2.298189 -2.533021 66.948073 -0.168029 34.519715 0.064599 0.000000 0.000000 0.000000 
